# xmcd
#
# Track frame offsets: 
#        150
#        20020
#        31143
#        46117
#        59694
#        78737
#        91355
#        105502
#        117588
#        128947
#        143389
#
# Disc length: 2104 seconds
#
# Revision: 0
# Processed by: cddbd v1.5.2PL0 Copyright (c) Steve Scherf et al.
# Submitted via: ExactAudioCopy v1.0b3
#
DISCID=9008360b
DTITLE=Jessi Colter - Ridin' Shotgun {2012 BGO Ed}
DYEAR=1981
DGENRE=Country
TTITLE0=Ridin' Shotgun (Honkin')
TTITLE1=Holdin' On
TTITLE2=Nobody Else Like You
TTITLE3=Somewhere Along The Way
TTITLE4=Wings Of My Victory
TTITLE5=Shine
TTITLE6=Ain't Makin' No Headlines (Here Without You)
TTITLE7=Jennifer (Fly Little Baby)
TTITLE8=Hard Times And Sno-Cone
TTITLE9=A Fallen Star
TTITLE10=Ridin' Shotgun (Tonkin')
EXTD=
EXTT0=
EXTT1=
EXTT2=
EXTT3=
EXTT4=
EXTT5=
EXTT6=
EXTT7=
EXTT8=
EXTT9=
EXTT10=
PLAYORDER=
